<?xml version="1.0" encoding="iso-8859-1"?>
<!-- Generator: Adobe Illustrator 19.0.0, SVG Export Plug-In . SVG Version: 6.00 Build 0)  -->
<svg version="1.1" id="Capa_1" xmlns="http://www.w3.org/2000/svg" xmlns:xlink="http://www.w3.org/1999/xlink" x="0px" y="0px"
	 viewBox="0 0 512 512" style="enable-background:new 0 0 512 512;" xml:space="preserve">
<g>
	<g>
		<path d="M256,0C114.837,0,0,114.837,0,256s114.837,256,256,256s256-114.837,256-256S397.163,0,256,0z M256,490.667
			c-129.387,0-234.667-105.28-234.667-234.667S126.613,21.333,256,21.333S490.667,126.613,490.667,256S385.387,490.667,256,490.667z
			"/>
	</g>
</g>
<g>
	<g>
		<path d="M160,170.667c-17.643,0-32,14.357-32,32c0,17.643,14.357,32,32,32s32-14.357,32-32
			C192,185.024,177.643,170.667,160,170.667z M160,213.333c-5.888,0-10.667-4.779-10.667-10.667S154.112,192,160,192
			s10.667,4.779,10.667,10.667S165.888,213.333,160,213.333z"/>
	</g>
</g>
<g>
	<g>
		<path d="M352,170.667c-17.643,0-32,14.357-32,32c0,17.643,14.357,32,32,32c17.643,0,32-14.357,32-32
			C384,185.024,369.643,170.667,352,170.667z M352,213.333c-5.888,0-10.667-4.779-10.667-10.667S346.112,192,352,192
			c5.888,0,10.667,4.779,10.667,10.667S357.888,213.333,352,213.333z"/>
	</g>
</g>
<g>
	<g>
		<path d="M410.645,370.197C389.653,301.888,327.509,256,256,256s-133.653,45.888-154.645,114.197
			c-0.981,3.243-0.384,6.763,1.621,9.472c2.005,2.731,5.184,4.331,8.576,4.331h288.896c3.392,0,6.571-1.6,8.576-4.331
			C411.051,376.939,411.627,373.44,410.645,370.197z M126.763,362.667c21.867-51.584,72.085-85.333,129.216-85.333
			s107.371,33.749,129.237,85.333H126.763z"/>
	</g>
</g>
<g>
	<g>
		<path d="M206.037,149.888l-64-21.333c-5.632-1.899-11.627,1.152-13.483,6.741c-1.877,5.589,1.152,11.627,6.741,13.483l64,21.333
			c1.131,0.384,2.261,0.555,3.371,0.555c4.459,0,8.619-2.816,10.112-7.296C214.635,157.781,211.627,151.744,206.037,149.888z"/>
	</g>
</g>
<g>
	<g>
		<path d="M383.445,135.296c-1.856-5.589-7.829-8.64-13.483-6.741l-64,21.333c-5.589,1.856-8.597,7.893-6.741,13.483
			c1.493,4.48,5.653,7.296,10.112,7.296c1.109,0,2.24-0.171,3.371-0.555l64-21.333C382.293,146.923,385.301,140.885,383.445,135.296
			z"/>
	</g>
</g>
<g>
</g>
<g>
</g>
<g>
</g>
<g>
</g>
<g>
</g>
<g>
</g>
<g>
</g>
<g>
</g>
<g>
</g>
<g>
</g>
<g>
</g>
<g>
</g>
<g>
</g>
<g>
</g>
<g>
</g>
</svg>
